<svg height="20px" width="20px" viewBox="-7 0 512 512.001" xmlns="http://www.w3.org/2000/svg"><path d="m488.035156 56.375h-244.976562v-5.566406c0-28.015625-22.792969-50.808594-50.808594-50.808594h-114.976562c-28.015626 0-50.808594 22.792969-50.808594 50.808594v38.054687c-16.621094 22.410157-26.464844 50.140625-26.464844 80.125 0 29.988281 9.84375 57.714844 26.464844 80.128907v212.074218c0 28.019532 22.792968 50.808594 50.808594 50.808594h114.976562c28.015625 0 50.808594-22.789062 50.808594-50.808594v-179.25h244.976562c5.523438 0 10-4.480468 10-10v-205.566406c0-5.523438-4.476562-10-10-10zm-410.761718-36.375h114.976562c16.988281 0 30.808594 13.820312 30.808594 30.808594v16.445312c-23.664063-20.570312-54.550782-33.035156-88.296875-33.035156-33.742188 0-64.628907 12.464844-88.296875 33.035156v-16.445312c0-16.988282 13.820312-30.808594 30.808594-30.808594zm57.488281 34.214844c63.28125 0 114.765625 51.488281 114.765625 114.773437 0 63.285157-51.484375 114.773438-114.765625 114.773438s-114.761719-51.488281-114.761719-114.773438c0-63.285156 51.484375-114.773437 114.761719-114.773437zm130.746093 82.042968h75.832032c18.140625 0 32.898437 14.757813 32.898437 32.898438s-14.757812 32.898438-32.898437 32.898438h-75.917969c2.679687-10.582032 4.105469-21.660157 4.105469-33.066407 0-11.285156-1.398438-22.25-4.019532-32.730469zm-42.449218 324.933594c0 16.988282-13.820313 30.808594-30.808594 30.808594h-114.976562c-16.988282 0-30.808594-13.820312-30.808594-30.808594v-190.464844c23.667968 20.570313 54.554687 33.035157 88.296875 33.035157 33.746093 0 64.632812-12.464844 88.296875-33.035157zm254.976562-199.25h-234.976562v-12.824218c6.183594-8.339844 11.429687-17.410157 15.578125-27.058594h82.703125c29.167968 0 52.898437-23.730469 52.898437-52.902344 0-29.167969-23.730469-52.898438-52.898437-52.898438h-82.558594c-4.171875-9.773437-9.464844-18.960937-15.722656-27.394531v-12.488281h234.976562zm0 0"/><path d="m134.761719 262.226562c-51.410157 0-93.230469-41.824218-93.230469-93.238281 0-51.410156 41.824219-93.238281 93.230469-93.238281 51.410156 0 93.234375 41.828125 93.234375 93.238281 0 51.414063-41.824219 93.238281-93.234375 93.238281zm0-166.476562c-40.378907 0-73.230469 32.855469-73.230469 73.238281 0 40.382813 32.851562 73.238281 73.230469 73.238281 40.382812 0 73.234375-32.855468 73.234375-73.238281 0-40.382812-32.851563-73.238281-73.234375-73.238281zm0 0"/><path d="m91.449219 178.988281c-5.523438 0-10-4.476562-10-10 0-29.398437 23.914062-53.316406 53.3125-53.316406 5.523437 0 10 4.476563 10 10s-4.476563 10-10 10c-18.371094 0-33.3125 14.945313-33.3125 33.316406 0 5.523438-4.480469 10-10 10zm0 0"/><path d="m435.316406 152.863281c-18.167968 0-32.953125-14.78125-32.953125-32.953125s14.785157-32.953125 32.953125-32.953125c18.171875 0 32.953125 14.78125 32.953125 32.953125s-14.78125 32.953125-32.953125 32.953125zm0-45.90625c-7.140625 0-12.953125 5.8125-12.953125 12.953125 0 7.144532 5.8125 12.953125 12.953125 12.953125s12.953125-5.808593 12.953125-12.953125c0-7.140625-5.8125-12.953125-12.953125-12.953125zm0 0"/><path d="m159.203125 364.804688h-91.125c-5.523437 0-10-4.480469-10-10 0-5.523438 4.476563-10 10-10h91.125c5.519531 0 10 4.476562 10 10 0 5.519531-4.480469 10-10 10zm0 0"/><path d="m201.449219 364.800781c-.652344 0-1.3125-.0625-1.960938-.191406-.628906-.128906-1.261719-.320313-1.871093-.570313-.601563-.25-1.179688-.558593-1.71875-.917968-.550782-.371094-1.0625-.78125-1.519532-1.25-.460937-.460938-.882812-.972656-1.25-1.519532-.363281-.539062-.660156-1.121093-.910156-1.71875-.25-.613281-.453125-1.230468-.582031-1.871093-.121094-.652344-.1875-1.3125-.1875-1.960938 0-.648437.066406-1.308593.1875-1.949219.128906-.640624.320312-1.269531.570312-1.871093.25-.597657.558594-1.1875.921875-1.726563.367188-.550781.789063-1.0625 1.25-1.523437.457032-.460938.96875-.878907 1.519532-1.238281.539062-.359376 1.117187-.671876 1.71875-.921876.609374-.25 1.242187-.4375 1.871093-.566406 1.289063-.261718 2.621094-.261718 3.910157 0 .640624.128906 1.269531.316406 1.867187.566406.613281.25 1.191406.5625 1.730469.921876.550781.359374 1.0625.777343 1.519531 1.238281.460937.460937.882813.972656 1.242187 1.523437.359376.539063.667969 1.128906.917969 1.726563.25.601562.441407 1.230469.570313 1.871093.132812.640626.203125 1.300782.203125 1.949219 0 .648438-.070313 1.308594-.203125 1.960938-.128906.640625-.320313 1.257812-.570313 1.871093-.25.597657-.558593 1.179688-.917969 1.71875-.359374.550782-.78125 1.058594-1.242187 1.519532-.457031.46875-.96875.878906-1.519531 1.25-.539063.359375-1.117188.667968-1.730469.917968-.597656.25-1.226563.441407-1.867187.570313-.640626.128906-1.300782.191406-1.949219.191406zm0 0"/><path d="m201.445312 404.726562h-91.121093c-5.523438 0-10-4.480468-10-10 0-5.523437 4.476562-10 10-10h91.121093c5.523438 0 10 4.476563 10 10 0 5.519532-4.476562 10-10 10zm0 0"/><path d="m68.078125 404.71875c-2.628906 0-5.210937-1.058594-7.070313-2.917969-.460937-.472656-.878906-.980469-1.242187-1.53125-.359375-.539062-.667969-1.121093-.917969-1.71875-.25-.609375-.441406-1.230469-.570312-1.871093-.128906-.648438-.199219-1.300782-.199219-1.960938 0-.648438.070313-1.308594.199219-1.949219s.320312-1.269531.570312-1.871093c.25-.597657.558594-1.179688.917969-1.726563.363281-.542969.78125-1.0625 1.242187-1.523437.460938-.457032.96875-.878907 1.519532-1.238282.539062-.359375 1.121094-.667968 1.730468-.917968.601563-.25 1.230469-.441407 1.871094-.570313 1.289063-.261719 2.617188-.261719 3.910156 0 .628907.128906 1.257813.320313 1.867188.570313.601562.25 1.179688.558593 1.722656.917968.546875.359375 1.058594.78125 1.519532 1.238282.460937.460937.878906.980468 1.25 1.523437.359374.546875.660156 1.128906.910156 1.726563.25.601562.449218 1.230468.578125 1.871093.128906.640625.191406 1.300781.191406 1.949219 0 .660156-.0625 1.3125-.191406 1.960938-.128907.640624-.328125 1.269531-.578125 1.871093-.242188.597657-.550782 1.179688-.910156 1.71875-.371094.550781-.789063 1.070313-1.25 1.53125-.460938.460938-.972657.878907-1.519532 1.238281-.542968.359376-1.121094.671876-1.722656.921876-.609375.25-1.238281.4375-1.867188.570312-.652343.128906-1.3125.1875-1.960937.1875zm0 0"/></svg>